<svg width="82" height="24" viewBox="0 0 82 24" fill="none" xmlns="http://www.w3.org/2000/svg">
<path d="M66.9441 14.8605C66.9441 11.2271 69.2383 8.67158 72.5017 8.67158C75.765 8.67158 78.0958 11.2256 78.0958 14.8605C78.0958 18.4955 75.7655 20.9048 72.5017 20.9048C69.2378 20.9048 66.9441 18.3855 66.9441 14.8605ZM63.5375 14.8605C63.5375 20.2218 67.2666 24 72.5012 24C77.7357 24 81.5014 20.2218 81.5014 14.8605C81.5014 9.49929 77.7723 5.57786 72.5012 5.57786C67.23 5.57786 63.5375 9.42843 63.5375 14.8605ZM46.1466 5.79345L53.1751 23.7834H56.4745L63.5025 5.79345H59.9527L54.8608 19.6821H54.7887L49.6969 5.79345H46.1466ZM32.4847 14.2122C32.6996 10.9014 34.8871 8.67158 37.8635 8.67158C40.4447 8.67158 42.3814 10.327 42.6684 12.8101H36.7156C34.6002 12.8101 33.4523 13.0619 32.5929 14.2138H32.4847V14.2122ZM29.0786 14.752C29.0786 20.1132 32.8438 23.9985 38.0423 23.9985C41.5566 23.9985 44.6396 22.1999 45.9663 19.3564L43.0981 17.9166C42.0944 19.7876 40.1578 20.9033 38.0423 20.9033C35.4956 20.9033 33.2014 18.9599 33.2014 17.0889C33.2014 16.1179 33.847 15.6852 34.779 15.6852H46.1451V14.7143C46.1451 9.31686 42.7029 5.57484 37.7553 5.57484C32.8077 5.57484 29.0781 9.42541 29.0781 14.7505M19.3257 23.7814H22.553V12.7372C22.553 10.3627 24.0224 8.67108 26.0672 8.67108C26.9281 8.67108 27.8236 8.95904 28.2548 9.35405C28.5778 8.49016 29.0796 7.62778 29.8324 6.76388C28.9715 6.04473 27.5021 5.57584 26.0672 5.57584C22.1233 5.57584 19.3257 8.52634 19.3257 12.7357V23.7824V23.7814ZM3.72868 11.8744V3.09373H9.03536C10.8278 3.09373 12.0117 4.13703 12.0117 5.72008C12.0117 7.51872 10.4702 8.88617 7.31505 9.92948C5.16353 10.6124 4.19595 11.1884 3.83686 11.8729L3.72868 11.8744ZM3.72868 20.6897V17.02C3.72868 15.4008 5.09141 13.8177 6.99202 13.2056C8.67778 12.6297 10.0751 12.0538 11.259 11.4432C12.8366 12.3794 13.8042 13.9972 13.8042 15.6888C13.8042 18.5669 11.0787 20.6897 7.38567 20.6897H3.72868ZM0.501404 23.7834H7.67263C13.1235 23.7834 17.2102 20.3655 17.2102 15.832C17.2102 13.3489 15.9557 11.119 13.732 9.6792C14.8799 8.52735 15.4178 7.19608 15.4178 5.57685C15.4178 2.23134 13.0154 0 9.39445 0H0.501404V23.7834Z" fill="#0B996E"/>
</svg>
