<svg width="40" height="40" viewBox="0 0 40 40" fill="none" xmlns="http://www.w3.org/2000/svg">
<path d="M40 20C40 31.0457 31.0457 40 20 40C8.9543 40 0 31.0457 0 20C0 8.9543 8.9543 0 20 0C31.0457 0 40 8.9543 40 20Z" fill="#0B996E"/>
<path d="M26.253 18.1743C27.4896 16.9636 28.0691 15.5642 28.0691 13.8621C28.0691 10.3455 25.481 8 21.5803 8H12V33H19.7254C25.5975 33 30 29.4073 30 24.6418C30 22.0317 28.6485 19.6878 26.253 18.1743ZM15.4767 11.252H21.1934C23.1244 11.252 24.3998 12.3487 24.3998 14.0127C24.3998 15.9033 22.7391 17.3407 19.3402 18.4374C17.0224 19.1553 15.98 19.7607 15.5932 20.4802L15.4767 20.4812V11.252ZM19.4162 29.748H15.4767V25.8907C15.4767 24.1886 16.9447 22.5246 18.9922 21.8811C20.8082 21.2758 22.3135 20.6704 23.5889 20.0285C25.2884 21.0127 26.3307 22.7132 26.3307 24.4913C26.3307 27.5166 23.3947 29.748 19.4162 29.748Z" fill="white"/>
</svg>
